# xmcd CD database file
#
# Track frame offsets:
#	150
#	17499
#	33179
#	46157
#	61139
#	76456
#	90625
#	114063
#	130354
#	147981
#	165664
#	187797
#	214161
#	226871
#
# Disc length: 3528 seconds
#
# Revision: 0
# Processed by: cddbd v1.5.2PL0 Copyright (c) Steve Scherf et al.
# Submitted via: CDex 1.51
#
DISCID=a60dc60e
DTITLE=Booker T - Sound The Alarm
DYEAR=2013
DGENRE=Blues
TTITLE0=Feat.Mayer Hawthorne_Sound The Alarm
TTITLE1=Feat.Luke James_All Over The Place
TTITLE2=Fun
TTITLE3=Feat.Jay James_Broken Heart
TTITLE4=Feel Good
TTITLE5=Feat.Anthony Hamilton_Gently
TTITLE6=Feat.Gary Clark Jr._Austin City Blues
TTITLE7=Feat.Estelle_Can't Wait
TTITLE8=Feat.Poncho Sanchez And Sheila E._66 Impala
TTITLE9=Feat.Kori Withers_Watch You Sleeping
TTITLE10=Feat.Vintage Trouble_Your Love Is No Love
TTITLE11=Feat.Ted Jones_Father Son Blues
TTITLE12=Hip Hug-Her
TTITLE13=Time Is Tight
EXTD=YEAR: 2013
EXTT0=
EXTT1=
EXTT2=
EXTT3=
EXTT4=
EXTT5=
EXTT6=
EXTT7=
EXTT8=
EXTT9=
EXTT10=
EXTT11=
EXTT12=
EXTT13=
PLAYORDER=
